<?xml version="1.0" standalone="no"?>
<!DOCTYPE svg PUBLIC "-//W3C//DTD SVG 20010904//EN"
 "http://www.w3.org/TR/2001/REC-SVG-20010904/DTD/svg10.dtd">
<svg version="1.0" xmlns="http://www.w3.org/2000/svg"
 width="570.000000pt" height="570.000000pt" viewBox="0 0 570.000000 570.000000"
 preserveAspectRatio="xMidYMid meet">
<metadata>
Created by potrace 1.11, written by Peter Selinger 2001-2013
</metadata>
<g transform="translate(0.000000,570.000000) scale(0.100000,-0.100000)"
fill="#000000" stroke="none">
<path d="M2694 4008 c-3 -5 -10 -6 -15 -2 -5 3 -16 1 -23 -5 -8 -7 -18 -11
-22 -9 -13 4 -54 -21 -79 -48 -12 -13 -27 -24 -33 -24 -7 0 -14 -11 -18 -25
-3 -14 -9 -23 -13 -21 -11 7 -28 -19 -26 -42 1 -13 -2 -25 -7 -28 -4 -3 -6
-10 -3 -15 4 -5 2 -9 -3 -9 -6 0 -10 -10 -10 -22 0 -13 -3 -34 -6 -48 -4 -14
-9 -36 -11 -50 -2 -14 -7 -36 -10 -50 -4 -14 -7 -33 -7 -42 1 -10 -4 -20 -9
-23 -5 -4 -7 -11 -4 -16 4 -5 1 -9 -4 -9 -6 0 -10 -4 -9 -8 2 -5 -13 -24 -32
-44 -44 -44 -63 -68 -54 -68 4 0 -3 -8 -14 -19 -12 -10 -22 -26 -22 -35 0 -9
-4 -16 -8 -16 -4 0 -8 -10 -9 -22 -1 -42 -8 -57 -45 -98 -9 -10 -14 -21 -11
-24 4 -3 -1 -6 -9 -6 -9 0 -21 -7 -28 -15 -7 -8 -16 -13 -20 -10 -4 3 -20 -5
-34 -16 -15 -12 -33 -18 -42 -15 -8 3 -12 2 -9 -4 3 -6 3 -10 -2 -11 -32 -3
-59 -11 -61 -19 -2 -6 -8 -8 -13 -5 -5 3 -18 1 -29 -5 -15 -8 -20 -8 -20 2 0
10 -2 10 -8 1 -6 -10 -46 -31 -74 -38 -5 -2 -11 -4 -15 -5 -5 -1 -11 -2 -15
-2 -3 1 -12 -5 -18 -13 -7 -8 -22 -15 -34 -15 -12 0 -31 -7 -42 -15 -12 -8
-24 -11 -28 -8 -3 3 -15 -2 -26 -12 -11 -10 -20 -15 -20 -10 0 4 -7 2 -15 -5
-8 -7 -15 -9 -15 -4 0 5 -6 2 -13 -7 -12 -15 -42 -31 -62 -33 -6 -1 -21 -11
-35 -23 -13 -13 -29 -23 -35 -23 -12 0 -37 -19 -82 -61 -12 -11 -26 -21 -30
-22 -16 -3 -42 -31 -37 -39 3 -4 -2 -11 -10 -14 -9 -3 -16 -12 -16 -19 0 -8
-6 -20 -13 -27 -22 -22 -38 -109 -26 -145 1 -5 3 -12 4 -18 7 -38 15 -41 98
-39 92 1 145 10 164 26 7 6 13 7 13 4 0 -7 78 32 90 44 3 3 19 12 35 20 17 8
38 22 48 31 10 10 26 16 35 14 9 -1 19 1 22 4 3 3 28 17 55 30 28 13 57 28 65
32 8 5 30 15 48 23 17 8 32 20 32 27 0 7 3 10 6 7 5 -6 107 26 129 40 6 4 19
8 29 9 11 2 25 8 31 13 7 5 14 7 17 5 3 -3 17 -1 31 4 19 8 27 7 31 -5 3 -8 1
-14 -5 -14 -6 0 -8 -4 -4 -9 3 -5 1 -12 -5 -16 -6 -4 -8 -10 -6 -14 3 -4 -1
-31 -8 -59 -8 -28 -11 -53 -8 -56 3 -3 1 -6 -5 -6 -9 0 -28 -54 -24 -72 0 -5
-4 -8 -10 -8 -5 0 -7 -4 -4 -10 3 -5 -1 -23 -10 -40 -8 -16 -15 -32 -15 -35 0
-3 0 -8 -1 -12 -1 -5 0 -20 1 -35 1 -16 -2 -28 -7 -28 -5 0 -8 -18 -8 -40 0
-22 3 -40 8 -40 4 0 5 -5 1 -12 -5 -7 -9 -28 -10 -48 -6 -112 -4 -139 10 -179
9 -24 14 -47 11 -51 -3 -4 2 -11 11 -14 8 -3 13 -10 10 -15 -3 -5 1 -14 9 -21
8 -7 15 -21 15 -31 0 -10 5 -21 11 -24 5 -4 8 -12 6 -18 -2 -7 5 -28 16 -47
11 -19 21 -44 21 -55 2 -25 20 -57 49 -89 45 -49 49 -59 34 -83 -5 -7 -6 -17
-2 -22 3 -5 -4 -12 -15 -16 -19 -6 -24 -16 -21 -42 1 -7 -3 -13 -9 -13 -6 0
-8 -5 -5 -10 3 -5 2 -10 -3 -10 -14 0 -4 -79 12 -95 8 -8 18 -15 23 -15 5 0
15 -9 23 -20 10 -14 17 -17 27 -8 7 6 13 6 13 1 0 -10 40 -10 57 0 5 4 13 3
17 0 11 -11 46 -10 46 1 0 6 4 6 11 -1 8 -8 19 -7 40 1 20 7 32 7 37 1 4 -6
16 -11 27 -13 105 -15 100 -16 113 13 7 15 15 25 18 22 13 -13 40 30 37 58 -5
48 -11 56 -37 51 -18 -3 -27 1 -31 15 -4 11 -10 17 -15 14 -4 -3 -13 2 -20 10
-7 8 -16 12 -21 9 -5 -3 -9 2 -9 10 0 14 -11 20 -25 14 -3 -2 -12 11 -21 27
-14 28 -14 33 2 62 9 18 19 32 23 31 14 -1 51 15 51 23 0 5 7 6 15 3 8 -4 23
0 32 7 14 12 16 12 8 0 -6 -11 -5 -12 6 -5 15 9 27 11 124 17 33 2 80 10 105
17 25 7 48 13 53 12 4 -1 7 2 7 6 0 4 9 8 20 9 17 2 20 -4 18 -40 -3 -62 8
-81 50 -96 20 -8 40 -18 43 -24 8 -12 32 1 24 13 -3 5 4 11 14 15 11 3 23 15
26 26 4 10 10 17 15 14 5 -3 11 -2 13 3 6 8 86 9 102 1 9 -5 44 -4 85 1 10 1
11 3 3 7 -7 2 -13 11 -13 19 0 9 -4 12 -10 9 -10 -6 -14 17 -4 27 3 4 20 2 37
-4 46 -14 86 -17 93 -7 3 5 10 7 15 4 22 -14 5 9 -39 55 -27 28 -56 50 -65 50
-10 0 -17 5 -17 10 0 6 -4 10 -10 10 -5 0 -38 14 -72 30 -34 17 -67 30 -74 30
-25 0 -22 29 6 50 16 12 28 27 27 34 -1 6 4 10 11 8 6 -1 12 5 12 13 0 8 3 15
8 15 4 0 16 16 26 35 10 19 27 44 38 55 11 12 21 27 22 34 1 7 10 21 19 30 9
10 15 22 12 27 -4 5 -2 9 2 9 5 0 8 21 7 48 0 26 4 61 9 77 13 42 15 267 2
284 -8 12 -7 13 4 6 11 -6 12 -5 5 6 -5 8 -9 25 -9 39 0 14 -3 30 -6 35 -3 6
-5 28 -5 50 1 22 -2 48 -7 58 -9 19 -17 57 -20 90 -1 9 -4 17 -8 17 -5 0 -13
16 -23 50 -8 27 -30 70 -36 70 -4 0 -10 9 -13 20 -5 21 9 37 33 38 8 0 42 4
75 8 53 6 158 8 207 4 10 -1 20 -5 23 -10 3 -5 12 -7 21 -3 8 3 23 -2 33 -11
10 -9 21 -13 24 -9 4 3 7 1 7 -5 0 -7 11 -12 25 -12 14 0 25 -4 25 -10 0 -5 7
-10 15 -10 8 0 15 -4 15 -9 0 -8 27 -19 40 -17 3 1 16 -9 29 -21 13 -12 28
-20 33 -17 4 3 8 0 8 -6 0 -6 4 -9 9 -6 5 3 20 -5 35 -19 23 -21 34 -23 98
-22 66 2 84 10 78 33 -1 4 3 10 9 14 6 3 14 17 17 31 9 38 12 119 4 124 -4 3
-6 16 -5 30 2 14 -1 25 -6 25 -5 0 -9 8 -9 18 -1 17 -33 62 -45 62 -3 0 -13 6
-20 13 -32 28 -44 36 -86 57 -24 13 -47 28 -51 34 -4 6 -8 7 -8 2 0 -4 -12 -1
-26 9 -15 9 -23 12 -19 5 5 -9 1 -8 -16 1 -13 7 -28 14 -34 15 -5 0 -14 2 -20
4 -5 1 -14 3 -20 4 -5 1 -30 8 -55 15 -25 8 -54 15 -65 16 -11 1 -22 4 -25 5
-3 1 -16 1 -29 0 -14 -1 -21 2 -17 9 4 6 -2 8 -14 6 -11 -2 -22 0 -25 5 -3 4
-14 6 -24 3 -10 -3 -28 0 -38 6 -14 7 -23 7 -31 -1 -7 -7 -12 -8 -12 -2 0 5
-15 11 -32 13 -18 1 -45 4 -60 5 -15 1 -30 -3 -32 -8 -3 -7 -5 -6 -5 1 -1 7
-7 10 -15 7 -8 -3 -23 9 -37 33 -35 57 -61 83 -80 83 -10 0 -21 4 -24 10 -4 6
-17 4 -35 -5 -16 -8 -39 -15 -52 -15 -20 0 -19 3 12 22 19 12 37 25 40 29 5 7
48 23 65 24 67 6 135 84 104 121 -6 7 -8 17 -5 22 12 19 -43 29 -149 28 -61
-1 -116 -5 -124 -10 -10 -7 -12 -6 -6 3 6 10 3 11 -11 3 -32 -17 -82 -3 -88
24 -4 13 -11 24 -16 24 -6 0 -18 8 -29 18 -27 25 -64 52 -73 53 -13 2 -28 6
-30 9 -8 6 -130 4 -134 -2z"/>
</g>
</svg>
